<svg width="1062" height="876" viewBox="0 0 1062 876" fill="none" xmlns="http://www.w3.org/2000/svg">
<path d="M95.332 0L173.739 61.3407L203.789 69.9559C268.486 55.7883 306.079 55.3955 375.801 69.9559L407.233 61.3407L483.223 0V59.9622L290.486 207.456L95.332 59.6176V0Z" fill="#001F3F"/>
<path d="M129.873 101.66C85.6606 181.954 92.9141 218.138 119.856 290.507L82.8974 345.644L188.246 311.183C218.371 312.282 234.581 311.312 261.818 305.67L290.141 362.186L318.464 304.291L451.791 334.272L457.317 291.541C492.901 217.219 489.557 175.571 449.373 101.315L426.231 119.235C433.83 129.229 443.265 137.488 446.955 146.459C479.423 209.523 447.079 279.095 384.091 297.743C358.531 305.311 347.133 302.568 322.264 297.743V294.642L289.45 236.058L258.018 294.642L256.982 297.743C221.821 305.648 204.151 303.646 174.084 289.128C133.672 268.107 116.443 230.544 121.237 175.062C122.964 155.075 150.597 118.546 153.36 118.546C156.123 118.546 132.72 102.989 129.873 101.66Z" fill="#001F3F"/>
<path d="M215.879 319.109L54.5741 367.699L0 772.961L253.182 575.155L294.977 398.37L215.879 319.109Z" fill="#001F3F"/>
<path d="M401.016 462.467L411.033 468.326L369.239 575.155L214.842 666.132L189.282 782.955L21.7606 876L45.5936 752.629L359.913 567.574L401.016 462.467Z" fill="#001F3F"/>
<path d="M336.771 200.908V226.409H358.186V200.908H336.771Z" fill="#001F3F"/>
<path d="M368.203 226.409H388.927V176.441H368.203V226.409Z" fill="#001F3F"/>
<path d="M325.372 231.923V238.126H432.103V231.923H325.372Z" fill="#001F3F"/>
<path d="M321.918 317.042L441.429 423.182L515 438.345L514.833 438.038C489.302 391.112 474.225 363.398 458.353 350.814L321.918 317.042Z" fill="#1ABC9C"/>
<path d="M398.944 226.409H419.323V148.872H398.944V226.409Z" fill="#1ABC9C"/>
<path d="M312.938 330.482L354.732 421.803L415.523 456.264L404.47 405.951L312.938 330.482Z" fill="#1ABC9C"/>
<path d="M199.645 155.075H206.764C208.937 155.749 209.691 156.491 210.368 158.342L211.736 171.308L211.743 171.382C208.481 172.832 206.207 176.094 206.207 179.887C206.207 185.025 210.383 189.191 215.533 189.191C220.06 189.191 224.156 182.146 224.68 181.705C225.205 181.265 227.277 183.333 227.277 183.333L228.313 184.022L232.113 185.745L233.84 186.09L235.912 186.432C235.912 186.432 244.547 186.09 244.691 186.773C244.835 187.456 244.893 189.288 244.893 190.57C244.893 210.744 228.037 227.098 207.243 227.098C186.45 227.098 169.594 210.744 169.594 190.57C169.594 172.921 182.494 158.196 199.645 154.786V155.075Z" fill="#001F3F"/>
<path d="M986 0C1027.97 2.48042e-06 1062 34.0264 1062 76V258C1062 299.974 1027.97 334 986 334H702.863L582.374 376.774L603 254.392V76C603 34.0264 637.026 0 679 0H986Z" fill="#1ABC9C"/>
</svg>
